<svg height="96" width="96" xmlns="http://www.w3.org/2000/svg" xmlns:xlink="http://www.w3.org/1999/xlink"><linearGradient id="a"><stop offset="0" stop-color="#fefefe"/><stop offset="1" stop-color="#fefefe" stop-opacity="0"/></linearGradient><linearGradient id="b" gradientUnits="userSpaceOnUse" x1="48" x2="48" y1="90" y2="5.987717"><stop offset="0" stop-color="#bcb5ac"/><stop offset="1" stop-color="#e9e7e4"/></linearGradient><linearGradient id="c" gradientUnits="userSpaceOnUse" x1="36.357143" x2="36.357143" xlink:href="#a" y1="6" y2="63.893143"/><radialGradient id="d" cx="48" cy="90.171875" gradientTransform="matrix(1.1573129 0 0 .99590774 -7.551021 .197132)" gradientUnits="userSpaceOnUse" r="42" xlink:href="#a"/><linearGradient id="e" gradientTransform="matrix(1.0058652 0 0 .994169 100 0)" gradientUnits="userSpaceOnUse" x1="45.447727" x2="45.447727" y1="92.539597" y2="7.01654"><stop offset="0"/><stop offset="1" stop-opacity=".588235"/></linearGradient><linearGradient id="f" gradientTransform="matrix(1.0238095 0 0 1.0119048 -1.142857 -98.071429)" gradientUnits="userSpaceOnUse" x1="32.251034" x2="32.251034" xlink:href="#e" y1="6.131708" y2="90.238609"/><linearGradient id="g" gradientTransform="translate(0 -97)" gradientUnits="userSpaceOnUse" x1="32.251034" x2="32.251034" xlink:href="#e" y1="6.131708" y2="90.238609"/><g><g fill="url(#f)"><path d="m12-95.03125c-5.5110903 0-10.03125 4.52016-10.03125 10.03125v71c0 5.5110902 4.5201598 10.03125 10.03125 10.03125h72c5.51109 0 10.03125-4.5201597 10.03125-10.03125v-71c0-5.51109-4.52016-10.03125-10.03125-10.03125z" opacity=".08" transform="scale(1 -1)"/><path d="m12-94.03125c-4.971633 0-9.03125 4.059617-9.03125 9.03125v71c0 4.9716329 4.0596171 9.03125 9.03125 9.03125h72c4.971633 0 9.03125-4.059617 9.03125-9.03125v-71c0-4.971633-4.059617-9.03125-9.03125-9.03125z" opacity=".1" transform="scale(1 -1)"/><path d="m12-93c-4.4091333 0-8 3.590867-8 8v71c0 4.4091333 3.5908667 8 8 8h72c4.409133 0 8-3.5908667 8-8v-71c0-4.409133-3.590867-8-8-8z" opacity=".2" transform="scale(1 -1)"/><rect height="85" opacity=".3" rx="7" transform="scale(1 -1)" width="86" x="5" y="-92"/></g><rect fill="url(#g)" height="84" opacity=".45" rx="6" transform="scale(1 -1)" width="84" x="6" y="-91"/></g><g><path d="m12 6c-3.324 0-6 2.676-6 6v72c0 3.324 2.676 6 6 6h72c3.324 0 6-2.676 6-6v-72c0-3.324-2.676-6-6-6z" fill="url(#b)"/><path d="m12 6c-3.324 0-6 2.676-6 6v2 68 2c0 .334721.04135.6507.09375.96875.0487.295596.09704.596915.1875.875.00988.03038.020892.0636.03125.09375.098865.287771.2348802.547452.375.8125.1445918.273507.3156161.535615.5.78125s.3737765.473472.59375.6875c.439947.428056.94291.814526 1.5 1.09375.278545.139612.5734731.246947.875.34375-.2562018-.100222-.4867109-.236272-.71875-.375-.00741-.0044-.023866.0045-.03125 0-.031933-.0193-.062293-.04251-.09375-.0625-.120395-.0767-.2310226-.163513-.34375-.25-.1061728-.0808-.2132809-.161112-.3125-.25-.1779299-.161433-.3474596-.345388-.5-.53125-.1075789-.130255-.2183939-.265285-.3125-.40625-.025089-.03838-.038446-.08587-.0625-.125-.064763-.103032-.1302275-.204517-.1875-.3125-.1010083-.194706-.2056748-.415701-.28125-.625-.00796-.02181-.023589-.04055-.03125-.0625-.0318251-.09195-.0358045-.186831-.0625-.28125-.0303323-.106618-.0703894-.203031-.09375-.3125-.0728786-.341512-.125-.698205-.125-1.0625v-2-68-2c0-2.781848 2.2181517-5 5-5h2 68 2c2.781848 0 5 2.218152 5 5v2 68 2c0 .364295-.05212.720988-.125 1.0625-.04415.206893-.08838.397658-.15625.59375-.0077.02195-.0233.04069-.03125.0625-.06274.173739-.138383.367449-.21875.53125-.04158.0828-.07904.169954-.125.25-.0546.09721-.126774.18835-.1875.28125-.09411.140965-.204921.275995-.3125.40625-.143174.17445-.303141.346998-.46875.5-.01117.0102-.01998.02115-.03125.03125-.138386.125556-.285091.234436-.4375.34375-.102571.07315-.204318.153364-.3125.21875-.0074.0045-.02384-.0044-.03125 0-.232039.138728-.462548.274778-.71875.375.301527-.0968.596455-.204138.875-.34375.55709-.279224 1.060053-.665694 1.5-1.09375.219973-.214028.409366-.441865.59375-.6875s.355408-.507743.5-.78125c.14012-.265048.276135-.524729.375-.8125.01041-.03078.02133-.06274.03125-.09375.09046-.278085.1388-.579404.1875-.875.0524-.31805.09375-.634029.09375-.96875v-2-68-2c0-3.324-2.676-6-6-6z" fill="url(#c)" opacity=".5"/><path d="m12 90c-3.324 0-6-2.676-6-6v-2-68-2c0-.334721.04135-.6507.09375-.96875.0487-.295596.09704-.596915.1875-.875.0099-.03038.02089-.0636.03125-.09375.09886-.287771.23488-.547452.375-.8125.144592-.273507.315616-.535615.5-.78125s.373776-.473472.59375-.6875c.439947-.428056.94291-.814526 1.5-1.09375.278545-.139612.573473-.246947.875-.34375-.256202.100222-.486711.236272-.71875.375-.0074.0044-.02387-.0045-.03125 0-.03193.0193-.06229.04251-.09375.0625-.120395.0767-.231023.163513-.34375.25-.106173.0808-.213281.161112-.3125.25-.17793.161433-.34746.345388-.5.53125-.107579.130255-.218394.265285-.3125.40625-.02509.03838-.03845.08587-.0625.125-.06476.103032-.130228.204517-.1875.3125-.101008.194706-.205675.415701-.28125.625-.008.02181-.02359.04055-.03125.0625-.03182.09195-.0358.186831-.0625.28125-.03033.106618-.07039.203031-.09375.3125-.072879.341512-.125.698205-.125 1.0625v2 68 2c0 2.781848 2.218152 5 5 5h2 68 2c2.781848 0 5-2.218152 5-5v-2-68-2c0-.364295-.05212-.720988-.125-1.0625-.04415-.206893-.08838-.397658-.15625-.59375-.0077-.02195-.0233-.04069-.03125-.0625-.06274-.173739-.138383-.367449-.21875-.53125-.04158-.0828-.07904-.169954-.125-.25-.0546-.09721-.126774-.18835-.1875-.28125-.09411-.140965-.204921-.275995-.3125-.40625-.143174-.17445-.303141-.346998-.46875-.5-.01117-.0102-.01998-.02115-.03125-.03125-.138386-.125556-.285091-.234436-.4375-.34375-.102571-.07315-.204318-.153364-.3125-.21875-.0074-.0045-.02384.0044-.03125 0-.232039-.138728-.462548-.274778-.71875-.375.301527.0968.596455.204138.875.34375.55709.279224 1.060053.665694 1.5 1.09375.219973.214028.409366.441865.59375.6875s.355408.507743.5.78125c.14012.265048.276135.524729.375.8125.01041.03078.02133.06274.03125.09375.09046.278085.1388.579404.1875.875.0524.31805.09375.634029.09375.96875v2 68 2c0 3.324-2.676 6-6 6z" fill="url(#d)" opacity=".5"/><path d="m46.900282 15.058707-.0033.0065c-18.409182.140323-33.189044 14.999128-33.189044 33.443264 0 18.531275 14.91868 33.449954 33.449954 33.449954 17.862276 0 32.364503-13.863333 33.388072-31.461354l.06188-.05854v-28.689999c0-3.706255-2.983736-6.689992-6.689991-6.689992h-27.017571z" fill="none" opacity=".12" stroke="#000" stroke-width="2"/><path d="m46.962162 15.000167-.0033.0065c-18.409182.140323-33.189044 14.999128-33.189044 33.443264 0 18.531275 14.91868 33.449954 33.449954 33.449954 17.862276 0 32.364503-13.863333 33.388072-31.461354l.06188-.05854v-28.689999c0-3.706255-2.983736-6.689992-6.689991-6.689992h-27.017571z" fill="none" opacity=".12" stroke="#000" stroke-width="4"/><g stroke-width="1.6725"><path d="m46.838402 15.117247-.0033.0065c-18.409182.140323-33.189044 14.999127-33.189044 33.443264 0 18.531275 14.91868 33.449954 33.449954 33.449954 17.862276 0 32.364503-13.863333 33.388072-31.461354l.06188-.05854v-28.69c0-3.706255-2.983736-6.689991-6.689991-6.689991h-27.017571z" fill="#4f4f4f"/><circle cx="47.095966" cy="48.567215" fill="#efefef" r="25.087465"/><path d="m50.77379 37.165784c-.128331 1.482954-1.136596.853476-2.228269 1.66263-.294494-.04429-.630381-.04429-1.091639-.04429-.08337-.988881.253099-1.168541.419278-1.348167.672361-.539665 1.136596-.269523 1.136596-.269523.503238-.09105.963911.04427 1.763983-.000713zm2.519116-2.42763h-1.468922v-.404276h-.797146v.223964c-.08633.04429-.169725.135372-.253099.179677h-.08337c-1.389745-1.168541-1.47245 1.214099-2.39786.674434-.08337-.494758-.04143-.944593-.04143-1.528579 1.597235-.04561 1.008282-.494742.547609-1.078694-.166163-.225235-.253099-.584605-.294494-.809188-.377884-1.482954-1.933741-2.381971-4.199809-1.438064-1.47245.58397-1.091656 2.69707-.96687 4.135084-.08337.134134-.2531.08986-.377885.08986-1.597235.08988-2.311057 1.886577-2.647563 3.325427.08337 1.303879-.08338 2.741893-.294494 3.999778-.211119 1.258388-.630381 2.247335-.672377 3.460733-.08337 1.07871.294493 2.337148.211119 3.325929-.883497 2.78705-1.51453 4.629306-1.97522 7.595982-.335888.673799-1.510884 2.111863-1.97522 2.426962-.124768.223964.08337.719358-.124768 1.033168-.377884.583953-.966871.899018-1.302775 1.52858.08337.134134-.505613.269523-.460673.494741.04141.223964.335888.807934.460673.943322.04141.08988.460672-.135372.460672 0 .169726.538411.54761 1.66263.966871 1.932237 1.850285.223964 1.850285.223964 2.605585 0 .419278-1.303879-1.427578-.719341-1.261415-2.472453 2.522796-.538411 3.319239-1.303277 4.327588-4.134582.460673-2.067542 1.091656-4.089591 2.058008-6.06732.166163-.134134.124785-.494123.419262-.629511 1.133034 2.02205 3.194471 3.461234 4.199809 5.573766.253099 2.741391.758712 4.224394 1.638713 4.719119.211103.08986 0 .943322.169725 1.122999 0 .269523.08337.583952-.04141.899017-.08633.225236-.04139.494742-.04139.719358v.269523c.04139.406166.124785.406166.502652.719358 1.091656.763629 2.564274 1.977729 4.033061 1.078711.672378-1.169812-.755166-2.651578-1.763314-3.415742-.335888-.269523-.924891-.943322-.842103-1.393174.54761-.584605.924892-3.146302.713772-5.124031-.08337-.448564-.166162-.899018-.335887-1.258387-.502653-1.033152-1.63567-2.471952-2.602072-3.504886.124785-.134135.294493-.315065.502652-.404912 0-.988245-.377884-1.303277-.879934-2.02205-.422825-.719358-1.3861-2.111863-2.103501-2.561597 0 0 0-.04561-.713772-.04561-.04141-.494106.08633-.899018.211103-1.438064 0-.404276.294493-.179058.377884-1.078711.21112-.763629.124785-.314429.29451-1.078075.166163-.359353.253099-.719341.253099-1.303879.627438.225252 1.88825.179676 2.435826 0l.124785.08988c.169725.04561.21112-.223964.335888-.268888.966871-.5403 1.302775-1.483572 2.099988-1.573469 0 0 .422824-.225235 1.04966 0 .253099 0 .464218.04429.464218-.225235.04141-.40426.04141-.71807.253099-.988864.166163 1.07871.627438 2.292827 1.468921 3.461234l.839243-.627973c-.797146-1.033152-1.299246-2.201676-1.386099-3.550545.04138.08986.08635.179676.169725.269539.294493 0 .460673-.674434.797162-.629528.0414-.08986.128314-.494741.21112-.809188h3.149647l1.133586-.269824v-.629511l-.838557-.08986v-.719358h-.211103v-.809188h-.502652v.764264l-1.302775-.08986v-.494742h-.502653v.4492l-1.344125-.134136v-.674418h-.505613v.629494l-1.97522-.134134v-.223329h.0015z" fill="#4f4f4f" fill-rule="evenodd"/></g></g></svg>