<svg height="96" width="96" xmlns="http://www.w3.org/2000/svg" xmlns:xlink="http://www.w3.org/1999/xlink"><linearGradient id="a" gradientUnits="userSpaceOnUse" x1="65.15625" x2="65.15625" xlink:href="#c" y1="16.125" y2="69.687508"/><radialGradient id="b" cx="48" cy="-15.894132" gradientTransform="matrix(-.00506833 1.2204755 -1.3843695 -.00574561 26.241279 -46.842142)" gradientUnits="userSpaceOnUse" r="35.9375"><stop offset="0" stop-color="#282828"/><stop offset="1"/></radialGradient><linearGradient id="c"><stop offset="0" stop-color="#fefefe"/><stop offset="1" stop-color="#fefefe" stop-opacity="0"/></linearGradient><linearGradient id="d" gradientUnits="userSpaceOnUse" x1="36.357143" x2="36.357143" xlink:href="#c" y1="6" y2="63.893143"/><filter id="e" color-interpolation-filters="sRGB" height="1.84" width="1.336" x="-.168" y="-.42"><feGaussianBlur stdDeviation=".55"/></filter><linearGradient id="f" gradientUnits="userSpaceOnUse" x1="48" x2="48" y1="90" y2="5.987717"><stop offset="0" stop-color="#dcdcdc"/><stop offset="1" stop-color="#f0f0f0"/></linearGradient><linearGradient id="g" gradientUnits="userSpaceOnUse" x1="62.47113" x2="62.47113" y1="16.125" y2="64.188072"><stop offset="0" stop-color="#fefefe" stop-opacity=".99278"/><stop offset="1" stop-color="#fefefe" stop-opacity="0"/></linearGradient><filter id="h" color-interpolation-filters="sRGB"><feGaussianBlur stdDeviation=".50332031"/></filter><radialGradient id="i" cx="48" cy="90.171875" gradientTransform="matrix(1.1573129 0 0 .99590774 -7.551021 .197132)" gradientUnits="userSpaceOnUse" r="42" xlink:href="#c"/><linearGradient id="j" gradientTransform="matrix(1.0058652 0 0 .994169 100 0)" gradientUnits="userSpaceOnUse" x1="45.447727" x2="45.447727" y1="92.539597" y2="7.01654"><stop offset="0"/><stop offset="1" stop-opacity=".588235"/></linearGradient><linearGradient id="k" gradientTransform="matrix(1.0238095 0 0 1.0119048 -1.142857 -98.071429)" gradientUnits="userSpaceOnUse" x1="32.251034" x2="32.251034" xlink:href="#j" y1="6.131708" y2="90.238609"/><linearGradient id="l" gradientTransform="translate(0 -97)" gradientUnits="userSpaceOnUse" x1="32.251034" x2="32.251034" xlink:href="#j" y1="6.131708" y2="90.238609"/><radialGradient id="m" cx="-30.417578" cy="49.614071" gradientTransform="matrix(2.6911551 -.07215544 .07538566 3.1720409 126.11823 -88.642251)" gradientUnits="userSpaceOnUse" r="15.748107"><stop offset="0" stop-color="#3c3c3c"/><stop offset="1"/></radialGradient><clipPath id="n"><path d="m0 95.999997v60.000003h96.000001v-60.000003zm68 20.000003c9.941125 0 18 8.05888 18 18s-8.058875 18-18 18-18-8.05888-18-18 8.058875-18 18-18z"/></clipPath><linearGradient id="o" gradientUnits="userSpaceOnUse" x1="51.42857" x2="90.714287" y1="72.785713" y2="72.785713"><stop offset="0" stop-color="#499119"/><stop offset="1" stop-color="#8fd625"/></linearGradient><linearGradient id="p" gradientUnits="userSpaceOnUse" x1="123.07514" x2="123.07514" y1="75.788338" y2="59.878803"><stop offset="0"/><stop offset="1" stop-opacity="0"/></linearGradient><clipPath id="q"><path d="m128 56c-9.94113 0-18 8.058875-18 18s8.05887 18 18 18 18-8.058875 18-18-8.05887-18-18-18zm-6 4.5h12v13.75h5l-11 13.75-11-13.75h5z"/></clipPath><linearGradient id="r" gradientUnits="userSpaceOnUse" x1="66.28918" x2="66.28918" xlink:href="#c" y1="73.378293125" y2="60.612804375"/><linearGradient id="s" gradientUnits="userSpaceOnUse" x1="62.321426" x2="62.321426" xlink:href="#c" y1="55.310268" y2="84.889679"/><g><g fill="url(#k)"><path d="m12-95.03125c-5.5110903 0-10.03125 4.52016-10.03125 10.03125v71c0 5.5110902 4.5201598 10.03125 10.03125 10.03125h72c5.51109 0 10.03125-4.5201597 10.03125-10.03125v-71c0-5.51109-4.52016-10.03125-10.03125-10.03125z" opacity=".08" transform="scale(1 -1)"/><path d="m12-94.03125c-4.971633 0-9.03125 4.059617-9.03125 9.03125v71c0 4.9716329 4.0596171 9.03125 9.03125 9.03125h72c4.971633 0 9.03125-4.059617 9.03125-9.03125v-71c0-4.971633-4.059617-9.03125-9.03125-9.03125z" opacity=".1" transform="scale(1 -1)"/><path d="m12-93c-4.4091333 0-8 3.590867-8 8v71c0 4.4091333 3.5908667 8 8 8h72c4.409133 0 8-3.5908667 8-8v-71c0-4.409133-3.590867-8-8-8z" opacity=".2" transform="scale(1 -1)"/><rect height="85" opacity=".3" rx="7" transform="scale(1 -1)" width="86" x="5" y="-92"/></g><rect fill="url(#l)" height="84" opacity=".45" rx="6" transform="scale(1 -1)" width="84" x="6" y="-91"/></g><g transform="translate(0 6)"><path d="m12.0625 12.0625v53.875h71.875v-53.875z" fill="url(#b)" transform="matrix(-1.0008688 0 0 -1.1558456 96.010447 88.220854)"/><path d="m12 12v62.28125h71.9375v-62.28125zm3 3h66v56h-66z" filter="url(#h)"/></g><g><path d="m12 6c-3.324 0-6 2.676-6 6v72c0 3.324 2.676 6 6 6h72c3.324 0 6-2.676 6-6v-72c0-3.324-2.676-6-6-6zm2 7.494924h68.378807v58.505076h-68.378807z" fill="url(#f)"/><path d="m12 6c-3.324 0-6 2.676-6 6v2 68 2c0 .334721.04135.6507.09375.96875.0487.295596.09704.596915.1875.875.00988.03038.020892.0636.03125.09375.098865.287771.2348802.547452.375.8125.1445918.273507.3156161.535615.5.78125s.3737765.473472.59375.6875c.439947.428056.94291.814526 1.5 1.09375.278545.139612.5734731.246947.875.34375-.2562018-.100222-.4867109-.236272-.71875-.375-.00741-.0044-.023866.0045-.03125 0-.031933-.0193-.062293-.04251-.09375-.0625-.120395-.0767-.2310226-.163513-.34375-.25-.1061728-.0808-.2132809-.161112-.3125-.25-.1779299-.161433-.3474596-.345388-.5-.53125-.1075789-.130255-.2183939-.265285-.3125-.40625-.025089-.03838-.038446-.08587-.0625-.125-.064763-.103032-.1302275-.204517-.1875-.3125-.1010083-.194706-.2056748-.415701-.28125-.625-.00796-.02181-.023589-.04055-.03125-.0625-.0318251-.09195-.0358045-.186831-.0625-.28125-.0303323-.106618-.0703894-.203031-.09375-.3125-.0728786-.341512-.125-.698205-.125-1.0625v-2-68-2c0-2.781848 2.2181517-5 5-5h2 68 2c2.781848 0 5 2.218152 5 5v2 68 2c0 .364295-.05212.720988-.125 1.0625-.04415.206893-.08838.397658-.15625.59375-.0077.02195-.0233.04069-.03125.0625-.06274.173739-.138383.367449-.21875.53125-.04158.0828-.07904.169954-.125.25-.0546.09721-.126774.18835-.1875.28125-.09411.140965-.204921.275995-.3125.40625-.143174.17445-.303141.346998-.46875.5-.01117.0102-.01998.02115-.03125.03125-.138386.125556-.285091.234436-.4375.34375-.102571.07315-.204318.153364-.3125.21875-.0074.0045-.02384-.0044-.03125 0-.232039.138728-.462548.274778-.71875.375.301527-.0968.596455-.204138.875-.34375.55709-.279224 1.060053-.665694 1.5-1.09375.219973-.214028.409366-.441865.59375-.6875s.355408-.507743.5-.78125c.14012-.265048.276135-.524729.375-.8125.01041-.03078.02133-.06274.03125-.09375.09046-.278085.1388-.579404.1875-.875.0524-.31805.09375-.634029.09375-.96875v-2-68-2c0-3.324-2.676-6-6-6z" fill="url(#d)"/><path d="m11.3125 8c-1.88391 0-3.3125 1.4293755-3.3125 3.3125v63.375c0 1.883124 1.42859 3.3125 3.3125 3.3125h73.375c1.88391 0 3.3125-1.429376 3.3125-3.3125v-63.375c0-1.8831246-1.42859-3.3125-3.3125-3.3125z" fill="#e6e6e6"/><path d="m38.31518 10c-.991399 0-1.789529.439999-1.789529.986543v1.973087c0 .546545.79813.986544 1.789529.986544h17.895291c.991399 0 1.789529-.439999 1.789529-.986544v-1.973087c0-.546544-.79813-.986543-1.789529-.986543z"/><path d="m14 80h68v1h-68z" fill="#7f7f7f"/><rect fill="#cf0" filter="url(#e)" height="3.142857" opacity=".243028" rx="1.571429" transform="matrix(1.2045455 0 0 1.4098656 .852272 -101.24304)" width="7.857143" x="50.57143" y="79.535713"/><rect fill="#7fff2a" height="2" rx="1" width="5" x="64.053825" y="12.197975"/><path d="m12 90c-3.324 0-6-2.676-6-6v-2-68-2c0-.334721.04135-.6507.09375-.96875.0487-.295596.09704-.596915.1875-.875.00988-.03038.020892-.0636.03125-.09375.098865-.287771.2348802-.547452.375-.8125.1445918-.273507.3156161-.535615.5-.78125s.3737765-.473472.59375-.6875c.439947-.428056.94291-.814526 1.5-1.09375.278545-.139612.5734731-.246947.875-.34375-.2562018.100222-.4867109.236272-.71875.375-.00741.0044-.023866-.0045-.03125 0-.031933.0193-.062293.04251-.09375.0625-.120395.0767-.2310226.163513-.34375.25-.1061728.0808-.2132809.161112-.3125.25-.1779299.161433-.3474596.345388-.5.53125-.1075789.130255-.2183939.265285-.3125.40625-.025089.03838-.038446.08587-.0625.125-.064763.103032-.1302275.204517-.1875.3125-.1010083.194706-.2056748.415701-.28125.625-.00796.02181-.023589.04055-.03125.0625-.0318251.09195-.0358045.186831-.0625.28125-.0303323.106618-.0703894.203031-.09375.3125-.0728786.341512-.125.698205-.125 1.0625v2 68 2c0 2.781848 2.2181517 5 5 5h2 68 2c2.781848 0 5-2.218152 5-5v-2-68-2c0-.364295-.05212-.720988-.125-1.0625-.04415-.206893-.08838-.397658-.15625-.59375-.0077-.02195-.0233-.04069-.03125-.0625-.06274-.173739-.138383-.367449-.21875-.53125-.04158-.0828-.07904-.169954-.125-.25-.0546-.09721-.126774-.18835-.1875-.28125-.09411-.140965-.204921-.275995-.3125-.40625-.143174-.17445-.303141-.346998-.46875-.5-.01117-.0102-.01998-.02115-.03125-.03125-.138386-.125556-.285091-.234436-.4375-.34375-.102571-.07315-.204318-.153364-.3125-.21875-.0074-.0045-.02384.0044-.03125 0-.232039-.138728-.462548-.274778-.71875-.375.301527.0968.596455.204138.875.34375.55709.279224 1.060053.665694 1.5 1.09375.219973.214028.409366.441865.59375.6875s.355408.507743.5.78125c.14012.265048.276135.524729.375.8125.01041.03078.02133.06274.03125.09375.09046.278085.1388.579404.1875.875.0524.31805.09375.634029.09375.96875v2 68 2c0 3.324-2.676 6-6 6z" fill="url(#i)" opacity=".6"/></g><path d="m14 17.007571h68v62.992429h-68z" fill="url(#m)"/><g transform="translate(2.444912 .521447)"><path d="m47.65625 16.125 22.03125 63.75h1l-22.03125-63.75z" fill="url(#a)" fill-rule="evenodd" opacity=".209"/><path d="m47.65625 16.125 22.03125 63.75h9.3125c.538805 0 .875-.336196.875-.875v-62c0-.538805-.336194-.875-.875-.875z" fill="url(#g)" fill-rule="evenodd" opacity=".138"/><g transform="translate(-3.476162 -4.427697)"><g transform="translate(0 -61)"><path d="m68 116c-11.060103 0-20 8.93989-20 20s8.939897 20 20 20 20-8.93989 20-20-8.939897-20-20-20z" opacity=".05"/><path d="m68 117c-10.515528 0-19 8.48447-19 19s8.484472 19 19 19 19-8.48447 19-19-8.484472-19-19-19z" opacity=".15"/><rect clip-path="url(#n)" height="36" opacity=".31" rx="18" width="36" x="50" y="118"/></g><path d="m90.714283 72.785713a19.642857 19.642857 0 1 1 -39.285713 0 19.642857 19.642857 0 1 1 39.285713 0z" fill="url(#o)" transform="matrix(0 -.91636366 .91636366 0 1.301818 139.12727)"/><path d="m121.8125 60.03125a.92847237.92847237 0 0 0 -.125.03125c.0117-.0026-.13641.03484-.125.03125.0114-.0036-.13605.03582-.125.03125.011-.0046-.13561.06802-.125.0625.0106-.0055-.10383.06893-.0937.0625.0101-.0064-.13448.06979-.125.0625.009-.0073-.10256.101837-.0937.09375.009-.0081-.10182.102577-.0937.09375.008-.0088-.0698.103248-.0625.09375.007-.0095-.10015.103847-.0937.09375.006-.0101-.068.135619-.0625.125.005-.01062-.0358.136059-.0312.125.005-.01106-.0661.105164-.0625.09375.004-.01141-.0338.136682-.0312.125.003-.01168-.002.13686 0 .125s-.0317.136948-.0312.125c.00036-.009.00005.057 0 .09375-.00002.01225.00014.03424 0 .03125v12.25h-3.53125c.01.000036-.10334.000639-.0937 0 .01-.000639-.10327.03256-.0937.03125.01-.0013-.1344.002-.125 0 .009-.002-.10299.03388-.0937.03125.009-.0026-.10278.03453-.0937.03125.009-.0033-.10253.03515-.0937.03125.009-.0039-.10223.06701-.0937.0625.008-.0045-.1019.03635-.0937.03125.008-.0051-.0703.06816-.0625.0625.008-.0057-.1011.06869-.0937.0625.007-.0062-.0694.06919-.0625.0625.007-.0067-.10016.100909-.0937.09375.006-.0072-.0684.07009-.0625.0625.006-.0076-.0678.101737-.0625.09375.005-.008-.036.102093-.0312.09375.005-.0083-.0667.102407-.0625.09375.004-.0087-.0348.07143-.0312.0625.004-.0089-.0342.134156-.0312.125.003-.0092-.0335.103088-.0312.09375.002-.0093-.0328.103224-.0312.09375.002-.0095-.00093.103313 0 .09375.00093-.0096-.00025.103355 0 .09375.00025-.0096.00042.134599 0 .125-.00042-.0096.001.103296 0 .09375-.001-.0095.002.103195 0 .09375-.002-.0094.0337.103048.0312.09375-.002-.0093.0343.102854.0312.09375-.003-.0091.0349.102616.0312.09375-.004-.0089.0668.102334.0625.09375-.004-.0086.0362.102009.0312.09375-.005-.0083.068.101643.0625.09375-.005-.0079.0685.101239.0625.09375l11 13.71875c-.002-.0024-.0109.01827 0 .03125.0164.01947.0343.03469.0312.03125-.005-.0057.0679.06794.0625.0625-.005-.0054.0682.06763.0625.0625-.006-.0051.0685.0673.0625.0625s.0688.0357.0625.03125c-.006-.0045.069.06659.0625.0625-.007-.0041.10047.03497.0937.03125-.007-.0037.0694.03459.0625.03125-.007-.0033.0696.03419.0625.03125-.007-.0029.101.03379.0937.03125-.007-.0025.0699.03338.0625.03125-.007-.0021.10124.03296.0937.03125-.007-.0017.0701.0013.0625 0-.008-.0013.10138.03211.0937.03125-.008-.000862.0702.000432.0625 0-.008-.000432.10143 0 .0937 0-.008 0 .10142-.000432.0937 0-.008.000432.0701-.000862.0625 0-.008.000862.10132-.03254.0937-.03125-.008.0013.07-.0017.0625 0-.007.0017.10113-.03338.0937-.03125-.007.0021.0697-.03379.0625-.03125-.007.0025.10084-.03419.0937-.03125-.007.0029.0694-.03459.0625-.03125-.007.0033.0692-.03497.0625-.03125-.007.0037.10025-.03534.0937-.03125-.006.0041.0688-.06695.0625-.0625-.006.0045.0685-.03605.0625-.03125s.0682-.06763.0625-.0625c-.006.0051.0679-.06794.0625-.0625-.005.0054.0676-.06824.0625-.0625-.003.0034.0148-.01178.0312-.03125.0109-.01298.002-.03365 0-.03125l11-13.71875c-.006.0075.068-.101643.0625-.09375-.005.0079.0674-.102009.0625-.09375-.005.0083.0356-.102334.0312-.09375-.004.0086.0662-.102616.0625-.09375-.004.0089.0343-.102854.0312-.09375-.003.0091.0337-.103048.0312-.09375-.002.0093.033-.103195.0312-.09375-.002.0094.001-.103296 0-.09375-.001.0095.00042-.103349 0-.09375-.00042.0096-.00025-.134605 0-.125.00025.0096-.00093-.103313 0-.09375.00093.0096-.002-.103224 0-.09375.002.0095-.0335-.103088-.0312-.09375.002.0093-.0342-.102906-.0312-.09375.003.0092-.0348-.133929-.0312-.125.004.0089-.0354-.07116-.0312-.0625.004.0087-.0673-.102093-.0625-.09375.005.0083-.0366-.101737-.0312-.09375.005.008-.0684-.101342-.0625-.09375.006.0076-.0689-.06966-.0625-.0625.006.0072-.10065-.10044-.0937-.09375.007.0067-.0699-.06869-.0625-.0625.007.0062-.10152-.06816-.0937-.0625.008.0057-.0707-.0676-.0625-.0625.008.0051-.10223-.03576-.0937-.03125.008.0045-.10253-.0664-.0937-.0625.009.0039-.10278-.03453-.0937-.03125.009.0033-.10299-.03388-.0937-.03125.009.0026-.10315-.03323-.0937-.03125.009.002-.13452-.0013-.125 0 .01.0013-.10334-.03189-.0937-.03125.01.000639-.10336.000036-.0937 0h-3.53125v-12.25-.03125c-.00006-.02323-.00012-.06711 0-.0625.00018.0069-.00053-.06939 0-.0625.00053.0069-.0321-.06936-.0312-.0625.00088.0069-.001-.100552 0-.09375.001.0068-.002-.06923 0-.0625.002.0067-.0332-.06914-.0312-.0625.002.0066-.0335-.06904-.0312-.0625.002.0065-.0338-.100167-.0312-.09375.003.0064-.0341-.06878-.0312-.0625.003.0063-.0344-.06862-.0312-.0625.003.0061-.0348-.06846-.0312-.0625.004.006-.0351-.06827-.0312-.0625.004.0058-.0353-.06807-.0312-.0625.004.0056-.0669-.06786-.0625-.0625.004.0054-.0359-.03638-.0312-.03125.005.0051-.0674-.06739-.0625-.0625.005.0049-.0676-.06713-.0625-.0625.005.0046-.0366-.03562-.0312-.03125.005.0044-.0681-.06659-.0625-.0625.006.0041-.0683-.03505-.0625-.03125.006.0038-.0685-.03476-.0625-.03125.006.0035-.0686-.03445-.0625-.03125.006.0032-.0688-.03414-.0625-.03125.006.0029-.0689-.03382-.0625-.03125.006.0026-.10029-.03349-.0937-.03125.007.0022-.0691-.03316-.0625-.03125.007.0019-.0692-.03282-.0625-.03125.007.0016-.0693-.0012-.0625 0 .007.0012-.10061-.000878-.0937 0 .007.000878-.0694-.03178-.0625-.03125.007.00053-.0694-.000181-.0625 0 .005.000121-.0393.000059-.0625 0h-.0312-11.90625c.005.000331-.0348.000889-.0625 0 .003.000165-.0174.000389-.0312 0 .005 0-.0348-.000779-.0625 0 .003 0-.0174-.000444-.0312 0-.0277.000889-.068.000331-.0625 0z" fill="url(#p)" opacity=".05" transform="translate(-60)"/><path clip-path="url(#q)" d="m122 61.5v13.75h-5l11 13.75 11-13.75h-5v-13.75z" fill="url(#p)" opacity=".3" transform="translate(-60)"/><path d="m121.9375 60.96875a.51873381.51873381 0 0 0 -.46875.53125v13.21875h-4.46875a.51873381.51873381 0 0 0 -.40625.84375l11 13.75a.51873381.51873381 0 0 0 .8125 0l11-13.75a.51873381.51873381 0 0 0 -.40625-.84375h-4.46875v-13.21875a.51873381.51873381 0 0 0 -.53125-.53125h-12a.51873381.51873381 0 0 0 -.0625 0z" fill="url(#p)" opacity=".15" transform="translate(-60)"/><path d="m62 60.5v13.75h-5l11 13.75 11-13.75h-5v-13.75z" fill="url(#r)"/><g><path d="m68 56c-9.941125 0-18 8.058875-18 18 0 3.6617 1.09067 7.063961 2.96875 9.90625-1.246625-2.364481-1.96875-5.047463-1.96875-7.90625 0-9.388841 7.611159-17 17-17s17 7.611159 17 17c0 2.858787-.722125 5.541769-1.96875 7.90625 1.87808-2.842289 2.96875-6.24455 2.96875-9.90625 0-9.941125-8.058875-18-18-18z" fill="url(#s)" opacity=".3"/><path d="m68 56c-9.94112 0-18 8.05887-18 18 0 .168593.02664.33252.03125.5.266962-9.70803 8.196223-17.5 17.96875-17.5 9.73052 0 17.63723 7.725255 17.96875 17.375v-1c-.33152-9.649745-8.23823-17.375-17.96875-17.375z" fill="#fefefe" opacity=".3"/></g></g></g></svg>